<svg width="13" height="10" viewBox="0 0 13 10" fill="none" xmlns="http://www.w3.org/2000/svg">
<path d="M12.8701 0.944767L12.2188 0.157525C12.1321 0.0523981 12.0321 0 11.9191 0C11.8063 0 11.7064 0.0523981 11.6196 0.157525L6.50007 6.34619L1.38072 0.157691C1.29389 0.0525637 1.19397 0.000165377 1.08109 0.000165377C0.968171 0.000165377 0.868251 0.0525637 0.781472 0.157691L0.130306 0.944987C0.0433441 1.04989 0 1.17069 0 1.3072C0 1.4436 0.043481 1.56439 0.130306 1.6693L6.20045 9.00758C6.28723 9.11254 6.38719 9.16499 6.50007 9.16499C6.61295 9.16499 6.71273 9.11254 6.79946 9.00758L12.8701 1.6693C12.9569 1.56433 13 1.44354 13 1.3072C13 1.17069 12.9569 1.04989 12.8701 0.944767Z" fill="white"/>
</svg>
