<svg width="61" height="59" viewBox="0 0 61 59" fill="none" xmlns="http://www.w3.org/2000/svg">
<g clip-path="url(#clip0_11_25)">
<path d="M30.5 59C47.3447 59 61 45.7924 61 29.5C61 13.2076 47.3447 0 30.5 0C13.6553 0 0 13.2076 0 29.5C0 45.7924 13.6553 59 30.5 59Z" fill="url(#paint0_linear_11_25)"/>
<path d="M30.5 54.0834C16.4854 54.0834 5.08334 43.0552 5.08334 29.5001C5.08334 15.9449 16.4854 4.91673 30.5 4.91673C44.5153 4.91673 55.9167 15.9449 55.9167 29.5001C55.9167 43.0552 44.5153 54.0834 30.5 54.0834Z" fill="url(#paint1_linear_11_25)"/>
<path opacity="0.3" d="M32.0488 20.1792V42.8968C36.534 40.9686 41.2899 40.2647 45.75 40.8821C45.75 33.3096 45.75 25.7371 45.75 18.1646C41.2898 17.5472 36.5341 18.2511 32.0488 20.1792ZM43.3049 37.3982C40.2883 36.9816 37.0948 37.4908 34.0681 38.8727L33.5595 37.8306C36.7979 36.3522 40.2263 35.8078 43.4736 36.2577L43.3049 37.3982ZM43.3049 32.7791C40.2883 32.3624 37.0948 32.8713 34.0681 34.2532L33.5595 33.2112C36.7979 31.7327 40.2255 31.1898 43.4736 31.6385L43.3049 32.7791ZM43.3049 28.1595C40.2883 27.7428 37.0948 28.2523 34.0681 29.634L33.5595 28.592C36.7979 27.1133 40.2263 26.5697 43.4736 27.019L43.3049 28.1595ZM43.3049 23.5403C40.2883 23.1236 37.0948 23.6331 34.0681 25.0148L33.5595 23.9727C36.7979 22.494 40.2263 21.9502 43.4736 22.3998L43.3049 23.5403Z" fill="white"/>
<path opacity="0.3" d="M17.1562 18.1646C17.1562 25.7371 17.1562 33.3096 17.1562 40.8821C21.6164 40.2647 26.372 40.9686 30.8574 42.8968V20.1792C26.3721 18.2511 21.6164 17.5472 17.1562 18.1646ZM28.8382 38.8727C25.8116 37.4908 22.6184 36.9819 19.6013 37.3982L19.4326 36.2577C22.6816 35.8087 26.1092 36.3519 29.3466 37.8306L28.8382 38.8727ZM28.8382 34.2532C25.8114 32.8715 22.6184 32.3632 19.6013 32.7791L19.4326 31.6385C22.6799 31.1898 26.1086 31.7327 29.3466 33.2112L28.8382 34.2532ZM28.8382 29.634C25.8116 28.2518 22.6184 27.7431 19.6013 28.1595L19.4326 27.019C22.6816 26.5691 26.1092 27.1135 29.3466 28.592L28.8382 29.634ZM29.3466 23.9727L28.8382 25.0148C25.8116 23.6328 22.6184 23.1245 19.6013 23.5403L19.4326 22.3998C22.6816 21.9502 26.1092 22.4943 29.3466 23.9727Z" fill="white"/>
<path d="M31.0956 19.2573V41.9749C35.5809 40.0467 40.3368 39.3428 44.7969 39.9603C44.7968 32.3877 44.7968 24.8152 44.7969 17.2427C40.3367 16.6253 35.581 17.3292 31.0956 19.2573ZM42.3518 36.4763C39.3352 36.0597 36.1417 36.5689 33.1149 37.9508L32.6064 36.9087C35.8447 35.4304 39.2732 34.886 42.5205 35.3358L42.3518 36.4763ZM42.3518 31.8572C39.3352 31.4405 36.1417 31.9494 33.1149 33.3313L32.6064 32.2893C35.8447 30.8108 39.2724 30.2679 42.5205 30.7166L42.3518 31.8572ZM42.3518 27.2377C39.3352 26.821 36.1417 27.3305 33.1149 28.7121L32.6064 27.6701C35.8447 26.1914 39.2732 25.6478 42.5205 26.0971L42.3518 27.2377ZM42.3518 22.6184C39.3352 22.2017 36.1417 22.7113 33.1149 24.0929L32.6064 23.0508C35.8447 21.5721 39.2732 21.0283 42.5205 21.4779L42.3518 22.6184Z" fill="#228BBB"/>
<path d="M16.2031 17.2427C16.2031 24.8152 16.2031 32.3877 16.2031 39.9603C20.6633 39.3428 25.4189 40.0467 29.9042 41.9749V19.2573C25.419 17.3292 20.6633 16.6253 16.2031 17.2427ZM27.8851 37.9508C24.8585 36.5689 21.6653 36.06 18.6482 36.4763L18.4794 35.3358C21.7285 34.8868 25.1561 35.4301 28.3935 36.9087L27.8851 37.9508ZM27.8851 33.3313C24.8583 31.9497 21.6653 31.4413 18.6482 31.8572L18.4794 30.7166C21.7268 30.2679 25.1555 30.8108 28.3935 32.2893L27.8851 33.3313ZM27.8851 28.7121C24.8585 27.3299 21.6653 26.8212 18.6482 27.2377L18.4794 26.0971C21.7285 25.6472 25.1561 26.1916 28.3935 27.6701L27.8851 28.7121ZM28.3935 23.0508L27.8851 24.0929C24.8585 22.7109 21.6653 22.2026 18.6482 22.6184L18.4794 21.4779C21.7285 21.0283 25.1561 21.5724 28.3935 23.0508Z" fill="#228BBB"/>
</g>
<defs>
<linearGradient id="paint0_linear_11_25" x1="4.52734e-07" y1="29.5" x2="61" y2="29.5" gradientUnits="userSpaceOnUse">
<stop stop-color="white"/>
<stop offset="1" stop-color="white"/>
</linearGradient>
<linearGradient id="paint1_linear_11_25" x1="5.08334" y1="29.5001" x2="55.9167" y2="29.5001" gradientUnits="userSpaceOnUse">
<stop stop-color="white"/>
<stop offset="1" stop-color="white"/>
</linearGradient>
<clipPath id="clip0_11_25">
<rect width="61" height="59" fill="white"/>
</clipPath>
</defs>
</svg>
