<svg width="44" height="32" viewBox="0 0 44 32" fill="none" xmlns="http://www.w3.org/2000/svg">
<path fill-rule="evenodd" clip-rule="evenodd" d="M43 29.6398C43 30.3879 42.3903 31 41.6452 31C41.6452 31 26.0645 25.0151 22 31C17.9355 25.0151 2.35484 31 2.35484 31C1.60968 31 1 30.3879 1 29.6398V5.02015C1 4.27204 1.60968 3.65995 2.35484 3.65995C2.35484 3.65995 19.2903 -2.32494 22 3.65995C24.7097 -2.32494 41.6452 3.65995 41.6452 3.65995C42.3903 3.65995 43 4.27204 43 5.02015V29.6398Z" stroke="white"/>
<path d="M26.7419 1.07556V19.0302L28.7742 14.4055L30.8065 19.0302V1.75566" stroke="white"/>
<path d="M22 3.72794V31" stroke="white"/>
</svg>
