<svg width="50" height="59" viewBox="0 0 50 59" fill="none" xmlns="http://www.w3.org/2000/svg">
<g filter="url(#filter0_d_11_18)">
<path d="M11.028 40.8H46V5.1C46 2.28735 43.907 0 41.3333 0H11C8.186 0 4 2.03745 4 7.65V43.35C4 48.9625 8.186 51 11 51H46V45.9H11.028C9.95 45.8694 8.66667 45.4053 8.66667 43.35C8.66667 43.0924 8.68767 42.8629 8.72267 42.6538C8.984 41.185 10.0853 40.8255 11.028 40.8ZM17.1787 14.3871C18.1499 13.3392 19.4597 12.7516 20.8245 12.7516C22.1893 12.7516 23.4991 13.3392 24.4703 14.3871L24.993 14.9455L25.5133 14.3871C26.4849 13.3391 27.7952 12.7514 29.1603 12.7514C30.5255 12.7514 31.8357 13.3391 32.8073 14.3871C33.2893 14.8937 33.6727 15.5013 33.9346 16.1737C34.1965 16.8461 34.3315 17.5693 34.3315 18.3001C34.3315 19.0308 34.1965 19.7541 33.9346 20.4265C33.6727 21.0988 33.2893 21.7065 32.8073 22.2131L24.9953 30.6L17.181 22.2131C16.6986 21.7069 16.3147 21.0994 16.0525 20.4271C15.7902 19.7548 15.6549 19.0315 15.6546 18.3006C15.6544 17.5698 15.7893 16.8464 16.0512 16.1739C16.3131 15.5014 16.6966 14.8936 17.1787 14.3871Z" fill="white" fill-opacity="0.9" shape-rendering="crispEdges"/>
</g>
<defs>
<filter id="filter0_d_11_18" x="0" y="0" width="50" height="59" filterUnits="userSpaceOnUse" color-interpolation-filters="sRGB">
<feFlood flood-opacity="0" result="BackgroundImageFix"/>
<feColorMatrix in="SourceAlpha" type="matrix" values="0 0 0 0 0 0 0 0 0 0 0 0 0 0 0 0 0 0 127 0" result="hardAlpha"/>
<feOffset dy="4"/>
<feGaussianBlur stdDeviation="2"/>
<feComposite in2="hardAlpha" operator="out"/>
<feColorMatrix type="matrix" values="0 0 0 0 0 0 0 0 0 0 0 0 0 0 0 0 0 0 0.25 0"/>
<feBlend mode="normal" in2="BackgroundImageFix" result="effect1_dropShadow_11_18"/>
<feBlend mode="normal" in="SourceGraphic" in2="effect1_dropShadow_11_18" result="shape"/>
</filter>
</defs>
</svg>
