<svg width="38" height="38" viewBox="0 0 38 38" fill="none" xmlns="http://www.w3.org/2000/svg">
<path d="M16.6914 37.3573C13.8853 37.0097 11.1667 36.0039 8.82629 34.4475C5.19182 32.0304 2.54649 28.4934 1.30209 24.3869C1.01215 23.4301 0.717954 21.9842 0.614538 21.0077C0.519112 20.1067 0.519112 17.9003 0.614538 16.9993C1.38902 9.68657 6.56222 3.44116 13.6167 1.30229C14.5732 1.01228 16.0188 0.717999 16.995 0.614557C17.8958 0.519106 20.1016 0.519106 21.0024 0.614557C25.2696 1.06673 29.231 3.00908 32.2696 6.13915C34.3598 8.29228 35.8379 10.7907 36.6953 13.6201C37.2279 15.3776 37.457 16.9971 37.457 19.0035C37.457 20.5116 37.3815 21.3385 37.1245 22.6433C35.8172 29.2804 30.8724 34.7365 24.3807 36.7047C23.4242 36.9948 21.9786 37.289 21.0024 37.3925C20.0574 37.4926 17.6237 37.4727 16.6914 37.3573ZM7.7867 31.1876C8.23224 30.8834 9.62342 30.2224 10.9894 29.666C13.5093 28.6396 14.3711 28.1627 14.9115 27.4954C15.3901 26.9042 15.4 26.8598 15.4091 25.2566L15.4173 23.7996L15.0419 23.305C14.4472 22.5214 14.0104 21.5522 13.8096 20.5709C13.7324 20.1938 13.6984 20.1416 13.4456 20.0126C12.8376 19.7024 12.4734 18.8605 12.4734 17.7656C12.4734 17.089 12.4806 17.0582 12.7189 16.7199C12.9624 16.374 12.9637 16.3682 12.878 15.9745C12.2576 13.1218 12.2626 10.9757 12.8935 9.36992C13.7618 7.1598 15.8383 6.00732 18.9626 6.00146C20.5652 5.99846 21.459 6.27742 22.1352 6.9916C22.3597 7.22877 22.4954 7.30764 22.748 7.34777C22.9265 7.37612 23.3074 7.51229 23.5945 7.65038C24.6304 8.14865 25.349 9.18004 25.6004 10.5292C25.8706 11.9797 25.6859 14.1046 25.1177 16.0838C25.0388 16.3585 25.0471 16.3913 25.2793 16.721C25.5167 17.0581 25.524 17.0894 25.524 17.7656C25.524 18.8587 25.1597 19.7024 24.5542 20.0114C24.292 20.1452 24.2715 20.1812 24.1544 20.7139C23.9305 21.7327 23.3495 22.9592 22.8406 23.4875L22.5854 23.7524L22.6163 25.2184C22.6469 26.6688 22.6494 26.6885 22.8537 27.0639C23.2984 27.8809 24.1344 28.4599 25.9613 29.2161C28.35 30.2049 29.2565 30.6142 29.8535 30.9736C30.2639 31.2206 30.5149 31.3296 30.6067 31.3005C30.7902 31.2422 31.9442 29.9575 32.5925 29.0897C34.2461 26.8764 35.3332 24.244 35.7749 21.3835C35.9535 20.2271 35.9529 17.7729 35.7737 16.6235C35.4864 14.7801 34.9577 13.0933 34.17 11.5074C31.6708 6.47544 27.0264 3.10495 21.3781 2.22409C20.2243 2.04415 17.7731 2.04415 16.6193 2.22409C14.7764 2.5115 13.09 3.0404 11.5045 3.82826C6.47389 6.32814 3.10428 10.9737 2.22365 16.6235C2.04376 17.7776 2.04376 20.2294 2.22365 21.3835C2.78788 25.0034 4.31483 28.1202 6.82587 30.7774C7.11639 31.0848 7.40276 31.3362 7.46224 31.3359C7.52173 31.3355 7.66773 31.2689 7.7867 31.1876Z" fill="white" fill-opacity="0.996078"/>
</svg>
