<svg width="23" height="20" viewBox="0 0 23 20" fill="none" xmlns="http://www.w3.org/2000/svg">
<path fill-rule="evenodd" clip-rule="evenodd" d="M15.3308 15.0232C13.702 16.069 18.7669 11.5765 17.3256 13.2842C17.3617 13.2817 17.2948 13.3764 17.0707 13.6138C17.0707 13.6138 20.9199 16.9299 22.8094 18.6176C23.4653 19.2329 22.2818 20.4609 21.4777 19.8198C19.7667 18.3798 15.7179 14.8013 15.7117 14.7955L15.3308 15.0232Z" fill="white"/>
<path d="M9.67483 16.7C12.1515 16.6792 14.6032 15.7895 16.3662 14.2782C18.46 12.4833 19.5382 9.8279 19.1622 7.29261C18.5178 2.94824 14.4002 0 9.61328 0C5.97617 0 2.44151 1.97342 0.891061 4.8349C-0.295818 7.02565 -0.298222 9.67064 0.891061 11.8651C2.43045 14.7066 5.9074 16.6696 9.55124 16.7C9.5926 16.7 9.63395 16.7 9.67483 16.7ZM9.56134 15.3081C5.86268 15.2772 2.41169 12.7962 1.72544 9.61516C1.24164 7.3727 2.15489 4.94586 4.05735 3.35327C6.27818 1.49331 9.76909 0.870541 12.6718 1.92462C15.2687 2.86774 17.2126 5.05765 17.5708 7.4703C17.8777 9.53841 17.0221 11.7058 15.3409 13.1987C13.8659 14.5085 11.7976 15.2902 9.66473 15.3081C9.63011 15.3081 9.59596 15.3081 9.56134 15.3081Z" fill="white"/>
</svg>
