<svg width="46" height="52" viewBox="0 0 46 52" fill="none" xmlns="http://www.w3.org/2000/svg">
<g clip-path="url(#clip0_11_39)">
<path d="M46.0001 37.3766C46.0001 31.0115 42.3977 25.6116 37.378 23.6015V6.5H34.503V3.24837H37.378V0H4.31545C4.1947 0.0065 3.2977 -0.013 2.23683 0.57525C1.16158 1.11475 -0.0487953 2.67313 0.00151721 4.875C0.00151721 4.88475 0.00295471 4.8945 0.00295471 4.90425V48.75C0.00295471 52 2.87795 52 2.87795 52H33.1819L33.1718 51.9935C40.2702 51.9269 46.0001 45.4106 46.0001 37.3766ZM4.10127 6.46912C3.84539 6.42687 3.47595 6.28713 3.26895 6.08238C3.07058 5.86462 2.89952 5.6875 2.87795 4.875C2.92539 3.82525 3.15683 3.76025 3.52052 3.484C3.70739 3.37838 3.93595 3.31013 4.10127 3.28088C4.26945 3.24513 4.31258 3.25812 4.31545 3.24837H31.628V6.5H4.31545C4.31258 6.5 4.26945 6.50325 4.10127 6.46912ZM5.75008 48.75V9.75H34.5001V22.8475C34.0271 22.7874 33.547 22.75 33.0597 22.75C29.9791 22.75 27.1588 23.9704 24.9378 26H8.62508V29.25H22.3043C21.7106 30.251 21.2363 31.3446 20.874 32.5H8.62508V35.75H20.207C20.1553 36.2846 20.1222 36.8257 20.1222 37.3766C20.1222 41.9738 22.001 46.072 24.935 48.75H5.75008ZM33.0626 48.75C27.5066 48.737 23.0087 43.6556 23.0001 37.3766C23.0087 31.096 27.5066 26.0098 33.0626 26.0016C38.6185 26.0114 43.1136 31.096 43.1251 37.3766C43.1136 43.6556 38.6185 48.737 33.0626 48.75Z" fill="white"/>
<path d="M31.625 19.5H8.625V22.75H31.625V19.5Z" fill="white"/>
<path d="M34.5029 35.75V29.25H31.625V35.75H25.875V39H31.625V45.5H34.5029V39H40.25V35.75H34.5029Z" fill="white"/>
</g>
<defs>
<clipPath id="clip0_11_39">
<rect width="46" height="52" fill="white"/>
</clipPath>
</defs>
</svg>
