<svg width="38" height="38" viewBox="0 0 38 38" fill="none" xmlns="http://www.w3.org/2000/svg">
<g clip-path="url(#clip0_42_183)">
<path d="M35.3381 13.6737V8.16244L29.7983 5.39048L24.4117 0L19 1.35328L13.5883 0L8.20175 5.39048L2.66186 8.16244V13.6737L0 19.0013L2.66186 24.3289V29.8401L8.20175 32.612L13.5883 38.0025L19 36.6492L24.4117 38.0025L29.7983 32.612L35.3381 29.8401V24.3289L38 19.0013L35.3381 13.6737ZM32.8246 23.7352V28.2856L28.4912 30.4538L23.6425 35.2155L19 34.0534L14.3575 35.2155L9.83305 30.6878L5.17291 28.283V23.7352L2.81016 19.0013L5.17542 14.2673V9.71695L9.5088 7.54869L14.36 2.78454L19.0025 3.94665L23.6451 2.78454L28.1695 7.31224L32.8296 9.71695V14.2673L35.1898 19.0013L32.8246 23.7352Z" fill="black"/>
<path d="M25.6511 10.5669L10.5703 25.6586L12.3477 27.4372L27.4284 12.3455L25.6511 10.5669Z" fill="black"/>
<path d="M13.9729 17.7436C16.0516 17.7436 17.7432 16.0507 17.7432 13.9705C17.7432 11.8902 16.0516 10.1974 13.9729 10.1974C11.8942 10.1974 10.2025 11.8902 10.2025 13.9705C10.2025 16.0507 11.8942 17.7436 13.9729 17.7436ZM13.9729 12.7128C14.6666 12.7128 15.2297 13.2762 15.2297 13.9705C15.2297 14.6647 14.6666 15.2282 13.9729 15.2282C13.2791 15.2282 12.7161 14.6647 12.7161 13.9705C12.7161 13.2762 13.2791 12.7128 13.9729 12.7128Z" fill="black"/>
<path d="M24.0271 20.259C21.9484 20.259 20.2568 21.9518 20.2568 24.032C20.2568 26.1123 21.9484 27.8051 24.0271 27.8051C26.1058 27.8051 27.7975 26.1123 27.7975 24.032C27.7975 21.9518 26.1058 20.259 24.0271 20.259ZM24.0271 25.2897C23.3334 25.2897 22.7703 24.7263 22.7703 24.032C22.7703 23.3378 23.3334 22.7743 24.0271 22.7743C24.7209 22.7743 25.2839 23.3378 25.2839 24.032C25.2839 24.7263 24.7209 25.2897 24.0271 25.2897Z" fill="black"/>
</g>
<defs>
<clipPath id="clip0_42_183">
<rect width="38" height="38" fill="white"/>
</clipPath>
</defs>
</svg>
